<svg width="26" height="26" viewBox="0 0 26 26" fill="none" xmlns="http://www.w3.org/2000/svg">
  <path fill-rule="evenodd" clip-rule="evenodd" d="M6.77083 4.875C5.72402 4.875 4.875 5.72402 4.875 6.77083V19.2292C4.875 20.276 5.72402 21.125 6.77083 21.125H19.2292C20.276 21.125 21.125 20.276 21.125 19.2292V6.77083C21.125 5.72402 20.276 4.875 19.2292 4.875H6.77083ZM3.25 6.77083C3.25 4.82656 4.82656 3.25 6.77083 3.25H19.2292C21.1734 3.25 22.75 4.82656 22.75 6.77083V19.2292C22.75 21.1734 21.1734 22.75 19.2292 22.75H6.77083C4.82656 22.75 3.25 21.1734 3.25 19.2292V6.77083Z" fill="#9E759C" />
  <path fill-rule="evenodd" clip-rule="evenodd" d="M21.9375 9.20833H4.0625V7.58333H21.9375V9.20833Z" fill="#9E759C" />
  <path d="M8.39583 14.0833C9.14372 14.0833 9.75 13.4771 9.75 12.7292C9.75 11.9813 9.14372 11.375 8.39583 11.375C7.64795 11.375 7.04167 11.9813 7.04167 12.7292C7.04167 13.4771 7.64795 14.0833 8.39583 14.0833Z" fill="#9E759C" />
  <path d="M13 14.0833C13.7479 14.0833 14.3542 13.4771 14.3542 12.7292C14.3542 11.9813 13.7479 11.375 13 11.375C12.2521 11.375 11.6458 11.9813 11.6458 12.7292C11.6458 13.4771 12.2521 14.0833 13 14.0833Z" fill="#9E759C" />
  <path d="M8.39583 18.9583C9.14372 18.9583 9.75 18.3521 9.75 17.6042C9.75 16.8563 9.14372 16.25 8.39583 16.25C7.64795 16.25 7.04167 16.8563 7.04167 17.6042C7.04167 18.3521 7.64795 18.9583 8.39583 18.9583Z" fill="#9E759C" />
  <path d="M13 18.9583C13.7479 18.9583 14.3542 18.3521 14.3542 17.6042C14.3542 16.8563 13.7479 16.25 13 16.25C12.2521 16.25 11.6458 16.8563 11.6458 17.6042C11.6458 18.3521 12.2521 18.9583 13 18.9583Z" fill="#9E759C" />
  <path d="M17.6042 14.0833C18.3521 14.0833 18.9583 13.4771 18.9583 12.7292C18.9583 11.9813 18.3521 11.375 17.6042 11.375C16.8563 11.375 16.25 11.9813 16.25 12.7292C16.25 13.4771 16.8563 14.0833 17.6042 14.0833Z" fill="#9E759C" />
</svg>