<svg width="20" height="20" viewBox="0 0 20 20" fill="none" xmlns="http://www.w3.org/2000/svg">
  <path d="M13.9174 1.43626C12.3316 0.520707 10.2795 1.07056 9.36397 2.65635L4.15563 11.6774C2.89498 13.861 3.64973 16.6777 5.83325 17.9384C8.01677 19.1991 10.8335 18.4443 12.0942 16.2608L16.8859 7.96137L15.4425 7.12804L10.6508 15.4274C9.84065 16.8307 8.06985 17.3052 6.66658 16.495C5.26332 15.6848 4.78883 13.914 5.59901 12.5108L10.8073 3.48968C11.2726 2.6838 12.2782 2.41436 13.0841 2.87964C13.8899 3.34492 14.1594 4.35046 13.6941 5.15635L9.31909 12.7341C9.19954 12.9411 8.957 13.0061 8.74992 12.8866C8.54284 12.767 8.47785 12.5245 8.59741 12.3174L12.5557 5.46137L11.1124 4.62804L7.15403 11.4841C6.58359 12.4721 6.92855 13.7595 7.91658 14.33C8.90462 14.9004 10.192 14.5554 10.7625 13.5674L15.1375 5.98968C16.053 4.40389 15.5032 2.35182 13.9174 1.43626Z" fill="#5A2957" />
</svg>