<svg width="48" height="48" viewBox="0 0 48 48" fill="none" xmlns="http://www.w3.org/2000/svg">
  <path d="M38.5 6.5V14.5C38.5 15.328 39.172 16 40 16C40.828 16 41.5 15.328 41.5 14.5V6.5C41.5 5.672 40.828 5 40 5C39.172 5 38.5 5.672 38.5 6.5Z" fill="#5A2957" />
  <path d="M36 12H44C44.828 12 45.5 11.328 45.5 10.5C45.5 9.672 44.828 9 44 9H36C35.172 9 34.5 9.672 34.5 10.5C34.5 11.328 35.172 12 36 12Z" fill="#5A2957" />
  <path d="M28 6H18.236C16.91 6 15.698 6.75 15.106 7.934L13.212 11.724C13.126 11.892 12.954 12 12.764 12H8C4.962 12 2.5 14.462 2.5 17.5V37.5C2.5 38.958 3.08 40.358 4.11 41.39C5.142 42.42 6.542 43 8 43C15.664 43 32.336 43 40 43C41.458 43 42.858 42.42 43.89 41.39C44.92 40.358 45.5 38.958 45.5 37.5C45.5 31.406 45.5 20.5 45.5 20.5C45.5 19.672 44.828 19 44 19C43.172 19 42.5 19.672 42.5 20.5C42.5 20.5 42.5 31.406 42.5 37.5C42.5 38.164 42.236 38.798 41.768 39.268C41.298 39.736 40.664 40 40 40H8C7.336 40 6.702 39.736 6.232 39.268C5.764 38.798 5.5 38.164 5.5 37.5V17.5C5.5 16.12 6.62 15 8 15H12.764C14.09 15 15.302 14.25 15.894 13.066L17.788 9.276C17.874 9.108 18.046 9 18.236 9H28C28.828 9 29.5 8.328 29.5 7.5C29.5 6.672 28.828 6 28 6Z" fill="#5A2957" />
  <path d="M24 17C18.756 17 14.5 21.256 14.5 26.5C14.5 31.744 18.756 36 24 36C29.244 36 33.5 31.744 33.5 26.5C33.5 21.256 29.244 17 24 17ZM24 20C27.588 20 30.5 22.912 30.5 26.5C30.5 30.088 27.588 33 24 33C20.412 33 17.5 30.088 17.5 26.5C17.5 22.912 20.412 20 24 20Z" fill="#5A2957" />
</svg>