<svg width="25" height="25" viewBox="0 0 25 25" fill="none" xmlns="http://www.w3.org/2000/svg">
  <path fill-rule="evenodd" clip-rule="evenodd" d="M16.7618 17.176C15.3145 18.3183 13.4869 19 11.5 19C6.80558 19 3 15.1944 3 10.5C3 5.80558 6.80558 2 11.5 2C16.1944 2 20 5.80558 20 10.5C20 12.4869 19.3183 14.3145 18.176 15.7618L22.7071 20.2929C23.0976 20.6834 23.0976 21.3166 22.7071 21.7071C22.3166 22.0976 21.6834 22.0976 21.2929 21.7071L16.7618 17.176ZM18 10.5C18 14.0899 15.0899 17 11.5 17C7.91015 17 5 14.0899 5 10.5C5 6.91015 7.91015 4 11.5 4C15.0899 4 18 6.91015 18 10.5Z" fill="#9E759C" />
</svg>