<svg width="25" height="26" viewBox="0 0 25 26" fill="none" xmlns="http://www.w3.org/2000/svg">
  <path fill-rule="evenodd" clip-rule="evenodd" d="M16.7618 17.676C15.3145 18.8183 13.4869 19.5 11.5 19.5C6.80558 19.5 3 15.6944 3 11C3 6.30558 6.80558 2.5 11.5 2.5C16.1944 2.5 20 6.30558 20 11C20 12.9869 19.3183 14.8145 18.176 16.2618L22.7071 20.7929C23.0976 21.1834 23.0976 21.8166 22.7071 22.2071C22.3166 22.5976 21.6834 22.5976 21.2929 22.2071L16.7618 17.676ZM18 11C18 14.5899 15.0899 17.5 11.5 17.5C7.91015 17.5 5 14.5899 5 11C5 7.41015 7.91015 4.5 11.5 4.5C15.0899 4.5 18 7.41015 18 11Z" fill="#9E759C" />
</svg>